<svg id="Capa_1" enable-background="new 0 0 512 512" height="512" viewBox="0 0 512 512" width="512" xmlns="http://www.w3.org/2000/svg"><g><path d="m116.312 449.322c-.17.573-.258 1.17-.258 1.774v19.302c0 3.455 2.801 6.256 6.256 6.256h267.38c3.455 0 6.256-2.801 6.256-6.256v-19.302c0-.604-.088-1.201-.258-1.774l-99.164-20.292z" fill="#a2b9e2"/><path d="m395.014 447.812-26.886-43.592c-1.139-1.847-3.154-2.972-5.324-2.972h-213.608c-2.17 0-4.185 1.125-5.324 2.972l-26.886 43.592c-.292.473-.517.982-.674 1.51h279.376c-.156-.529-.382-1.037-.674-1.51z" fill="#b9cbea"/><path d="m275.187 422.907c-12.557 3.465-25.817 3.465-38.374 0-1.523-.42-2.578-1.806-2.578-3.385v-16.864c0-13.867-3.749-27.475-10.85-39.386l32.615-12.087 32.615 12.087c-7.101 11.91-10.85 25.519-10.85 39.386v16.864c0 1.58-1.055 2.965-2.578 3.385z" fill="#a2b9e2"/><path d="m506.015 363.272h-500.03c-3.306 0-5.985-2.68-5.985-5.985v-315.955c0-3.306 2.68-5.985 5.985-5.985h500.031c3.305 0 5.984 2.679 5.984 5.984v315.956c0 3.305-2.68 5.985-5.985 5.985z" fill="#4a80aa"/><path d="m25.755 336.45v-274.281c0-.59.478-1.068 1.068-1.068h458.356c.59 0 1.068.478 1.068 1.068v274.281c0 .59-.478 1.068-1.068 1.068h-458.357c-.589 0-1.067-.478-1.067-1.068z" fill="#365e7d"/><path d="m485.178 61.101h-40.14v165.644c0 49.799-40.37 90.169-90.169 90.169h-329.114v19.536c0 .59.478 1.068 1.068 1.068h458.356c.59 0 1.068-.478 1.068-1.068v-274.281c-.002-.59-.48-1.068-1.069-1.068z" fill="#2b4d66"/></g></svg>